<svg width="58" height="34" viewBox="0 0 58 34" fill="none" xmlns="http://www.w3.org/2000/svg">
<path d="M4.04492 15.3452C4.29232 15.3452 4.53662 15.2988 4.77783 15.2061C5.01904 15.1195 5.23242 14.971 5.41797 14.7607C5.6097 14.5566 5.76432 14.2876 5.88184 13.9536C5.99935 13.6196 6.05811 13.2114 6.05811 12.729C6.05811 12.2095 5.92822 11.7054 5.66846 11.2168C5.41488 10.7282 5.09326 10.2489 4.70361 9.77881C4.32015 9.30257 3.90267 8.83252 3.45117 8.36865C3.00586 7.8986 2.58838 7.42236 2.19873 6.93994C1.81527 6.45133 1.49365 5.95036 1.23389 5.43701C0.980306 4.91748 0.853516 4.3763 0.853516 3.81348C0.853516 3.25065 0.955566 2.74349 1.15967 2.29199C1.36995 1.83431 1.65137 1.44775 2.00391 1.13232C2.36263 0.81071 2.77702 0.563314 3.24707 0.390137C3.72331 0.21696 4.23047 0.130371 4.76855 0.130371C5.34375 0.130371 5.854 0.19222 6.29932 0.315918C6.75081 0.433431 7.13118 0.597331 7.44043 0.807617C7.75586 1.01172 7.99398 1.25602 8.15479 1.54053C8.31559 1.81885 8.396 2.11572 8.396 2.43115C8.396 2.57959 8.37435 2.73421 8.33105 2.89502C8.28776 3.04964 8.21973 3.19189 8.12695 3.32178C8.03418 3.45166 7.91667 3.5599 7.77441 3.64648C7.63216 3.73307 7.46517 3.77637 7.27344 3.77637C7.0446 3.77637 6.87451 3.70833 6.76318 3.57227C6.65804 3.43001 6.57764 3.25684 6.52197 3.05273C6.47249 2.84863 6.4292 2.62598 6.39209 2.38477C6.35498 2.13737 6.29622 1.91162 6.21582 1.70752C6.13542 1.50342 6.01481 1.33333 5.854 1.19727C5.6932 1.05501 5.45817 0.983887 5.14893 0.983887C4.98193 0.983887 4.81494 1.021 4.64795 1.09521C4.48714 1.16943 4.3387 1.28385 4.20264 1.43848C4.07275 1.58691 3.96761 1.77865 3.88721 2.01367C3.8068 2.2487 3.7666 2.52702 3.7666 2.84863C3.7666 3.21973 3.84391 3.58154 3.99854 3.93408C4.15316 4.28662 4.35726 4.63607 4.61084 4.98242C4.86442 5.32259 5.15202 5.66585 5.47363 6.01221C5.80143 6.35238 6.13232 6.69873 6.46631 7.05127C6.80648 7.39762 7.13737 7.75635 7.45898 8.12744C7.78678 8.49235 8.07747 8.87272 8.33105 9.26855C8.58464 9.66439 8.78874 10.0788 8.94336 10.5117C9.09798 10.9447 9.17529 11.3993 9.17529 11.8755C9.17529 12.5744 9.03923 13.1991 8.76709 13.7495C8.50114 14.2938 8.13623 14.7515 7.67236 15.1226C7.21468 15.4998 6.6766 15.7874 6.05811 15.9854C5.43962 16.1833 4.78092 16.2822 4.08203 16.2822C3.45117 16.2822 2.89144 16.2018 2.40283 16.041C1.92041 15.8864 1.51221 15.6792 1.17822 15.4194C0.844238 15.1597 0.590658 14.8628 0.41748 14.5288C0.250488 14.201 0.166992 13.8608 0.166992 13.5083C0.166992 13.3599 0.188639 13.2021 0.231934 13.0352C0.281413 12.862 0.349447 12.7043 0.436035 12.562C0.528809 12.4198 0.643229 12.3022 0.779297 12.2095C0.915365 12.1105 1.07308 12.061 1.25244 12.061C1.43799 12.061 1.58643 12.1074 1.69775 12.2002C1.81527 12.293 1.90804 12.4167 1.97607 12.5713C2.04411 12.7259 2.09977 12.9022 2.14307 13.1001C2.18636 13.298 2.23275 13.499 2.28223 13.7031C2.33171 13.9072 2.39355 14.1082 2.46777 14.3062C2.54199 14.5041 2.64404 14.6803 2.77393 14.835C2.90381 14.9896 3.0708 15.1133 3.2749 15.2061C3.479 15.2988 3.73568 15.3452 4.04492 15.3452ZM22.0522 7.31104C22.0522 6.90283 22.0244 6.56576 21.9688 6.2998C21.9131 6.03385 21.8512 5.81429 21.7832 5.64111C21.7214 5.46175 21.6626 5.31641 21.6069 5.20508C21.5513 5.08757 21.5234 4.97933 21.5234 4.88037C21.5234 4.7876 21.5605 4.71029 21.6348 4.64844C21.709 4.58659 21.7956 4.53402 21.8945 4.49072C21.9997 4.44743 22.1048 4.4165 22.21 4.39795C22.3213 4.37939 22.411 4.37012 22.479 4.37012C22.6584 4.37012 22.7882 4.39486 22.8687 4.44434C22.9491 4.49382 23.014 4.58968 23.0635 4.73193C23.1191 4.9113 23.1562 5.14941 23.1748 5.44629C23.1995 5.73698 23.2119 6.04932 23.2119 6.3833C23.2119 6.85954 23.1841 7.38216 23.1284 7.95117C23.0728 8.52018 22.9831 9.09229 22.8594 9.66748C22.7419 10.2427 22.5872 10.7993 22.3955 11.3374C22.21 11.8755 21.9842 12.3548 21.7183 12.7754C21.4523 13.1898 21.1462 13.5238 20.7998 13.7773C20.4535 14.0247 20.0607 14.1484 19.6216 14.1484C19.2752 14.1484 18.9629 14.0804 18.6846 13.9443C18.4124 13.8021 18.1681 13.6104 17.9517 13.3691C17.7352 13.1279 17.5435 12.8465 17.3765 12.5249C17.2157 12.1971 17.0734 11.8477 16.9497 11.4766C16.8075 11.8538 16.6436 12.2064 16.458 12.5342C16.2725 12.8558 16.0653 13.1372 15.8364 13.3784C15.6138 13.6196 15.3664 13.8083 15.0942 13.9443C14.8221 14.0804 14.5283 14.1484 14.2129 14.1484C13.8232 14.1484 13.4769 14.0649 13.1738 13.8979C12.877 13.7248 12.6141 13.4928 12.3853 13.2021C12.1564 12.9053 11.9585 12.562 11.7915 12.1724C11.6245 11.7827 11.4792 11.3714 11.3555 10.9385C11.238 10.5055 11.139 10.0602 11.0586 9.60254C10.9782 9.14486 10.9102 8.70264 10.8545 8.27588C10.7988 7.84912 10.7524 7.4502 10.7153 7.0791C10.6782 6.70801 10.6411 6.38639 10.604 6.11426C10.5607 5.86686 10.4958 5.67513 10.4092 5.53906C10.3288 5.40299 10.1896 5.33496 9.9917 5.33496C9.88656 5.33496 9.79688 5.35352 9.72266 5.39062C9.64844 5.42773 9.56803 5.48031 9.48145 5.54834L9.28662 5.31641C9.42887 5.19889 9.58659 5.08447 9.75977 4.97314C9.93913 4.85563 10.1309 4.75358 10.335 4.66699C10.5391 4.5804 10.7586 4.50928 10.9937 4.45361C11.2287 4.39795 11.4761 4.37012 11.7358 4.37012C12.1069 4.37012 12.4069 4.43506 12.6357 4.56494C12.8646 4.68864 13.0439 4.84635 13.1738 5.03809C13.3099 5.22363 13.4058 5.42464 13.4614 5.64111C13.5171 5.85758 13.5573 6.05241 13.582 6.22559C13.6934 7.15951 13.8016 7.9821 13.9067 8.69336C14.0181 9.40462 14.1356 10.0015 14.2593 10.4839C14.383 10.9601 14.516 11.3219 14.6582 11.5693C14.8066 11.8105 14.9798 11.9312 15.1777 11.9312C15.3076 11.9312 15.4344 11.8755 15.5581 11.7642C15.6818 11.6528 15.7993 11.4982 15.9106 11.3003C16.022 11.1024 16.1271 10.8643 16.2261 10.5859C16.325 10.3014 16.4116 9.9891 16.4858 9.64893C16.424 9.30876 16.3714 8.97168 16.3281 8.6377C16.2848 8.30371 16.2446 7.98519 16.2075 7.68213C16.1766 7.37288 16.1457 7.08529 16.1147 6.81934C16.0838 6.55339 16.0498 6.31836 16.0127 6.11426C15.9199 5.53288 15.9725 5.09684 16.1704 4.80615C16.3745 4.51546 16.7796 4.37012 17.3857 4.37012C17.6517 4.37012 17.8743 4.39486 18.0537 4.44434C18.2393 4.48763 18.3908 4.57422 18.5083 4.7041C18.632 4.8278 18.731 5.00098 18.8052 5.22363C18.8794 5.4401 18.9382 5.71842 18.9814 6.05859C19.099 6.98633 19.2134 7.8151 19.3247 8.54492C19.436 9.27474 19.5535 9.89014 19.6772 10.3911C19.8009 10.8921 19.9339 11.2756 20.0762 11.5415C20.2246 11.8013 20.3978 11.9312 20.5957 11.9312C20.806 11.9312 21.0008 11.8013 21.1802 11.5415C21.3595 11.2817 21.5142 10.9385 21.644 10.5117C21.7739 10.085 21.8729 9.59326 21.9409 9.03662C22.0151 8.47998 22.0522 7.90479 22.0522 7.31104ZM27.4146 9.7417C27.4146 9.93962 27.4424 10.1561 27.498 10.3911C27.5599 10.62 27.6465 10.8519 27.7578 11.0869C27.8691 11.3219 28.0052 11.5477 28.166 11.7642C28.333 11.9744 28.5216 12.1631 28.7319 12.3301C28.9484 12.4971 29.1865 12.63 29.4463 12.729C29.7061 12.828 29.9906 12.8774 30.2998 12.8774C30.5163 12.8774 30.7173 12.8527 30.9028 12.8032C31.0884 12.7537 31.2616 12.6857 31.4224 12.5991C31.5832 12.5125 31.7378 12.4136 31.8862 12.3022C32.0347 12.1847 32.1831 12.061 32.3315 11.9312L32.5635 12.1538C32.4212 12.3455 32.2388 12.5558 32.0161 12.7847C31.7935 13.0135 31.5244 13.23 31.209 13.4341C30.8936 13.632 30.5256 13.799 30.105 13.9351C29.6844 14.0649 29.2051 14.1299 28.667 14.1299C28.1289 14.1299 27.6032 14.034 27.0898 13.8423C26.5827 13.6444 26.1312 13.3506 25.7354 12.9609C25.3395 12.5713 25.021 12.0858 24.7798 11.5044C24.5448 10.923 24.4272 10.2427 24.4272 9.46338C24.4272 8.90055 24.4984 8.38411 24.6406 7.91406C24.7829 7.44401 24.9746 7.02035 25.2158 6.64307C25.4632 6.26579 25.7477 5.9349 26.0693 5.65039C26.3971 5.36589 26.7404 5.13086 27.0991 4.94531C27.4578 4.75358 27.8228 4.61133 28.1938 4.51855C28.5711 4.4196 28.9329 4.37012 29.2793 4.37012C29.737 4.37012 30.1359 4.4196 30.4761 4.51855C30.8162 4.61751 31.0977 4.75049 31.3203 4.91748C31.5492 5.08447 31.7192 5.2793 31.8306 5.50195C31.9419 5.71842 31.9976 5.94727 31.9976 6.18848C31.9976 6.47917 31.9141 6.74202 31.7471 6.97705C31.5801 7.20589 31.3574 7.4069 31.0791 7.58008L27.4146 9.7417ZM29.2793 7.8584C29.3597 7.80892 29.4246 7.76253 29.4741 7.71924C29.5298 7.66976 29.5731 7.6141 29.604 7.55225C29.6349 7.48421 29.6566 7.40381 29.6689 7.31104C29.6875 7.21208 29.6968 7.09147 29.6968 6.94922C29.6968 6.7946 29.6782 6.62451 29.6411 6.43896C29.6102 6.24723 29.5545 6.06787 29.4741 5.90088C29.3937 5.73389 29.2917 5.59473 29.168 5.4834C29.0443 5.37207 28.8958 5.31641 28.7227 5.31641C28.5 5.31641 28.3083 5.38444 28.1475 5.52051C27.9928 5.65039 27.863 5.82048 27.7578 6.03076C27.6589 6.24105 27.5785 6.48226 27.5166 6.75439C27.4609 7.02035 27.4176 7.28939 27.3867 7.56152C27.3558 7.83366 27.3372 8.09652 27.3311 8.3501C27.3249 8.59749 27.3218 8.80778 27.3218 8.98096L29.2793 7.8584ZM36.0239 9.7417C36.0239 9.93962 36.0518 10.1561 36.1074 10.3911C36.1693 10.62 36.2559 10.8519 36.3672 11.0869C36.4785 11.3219 36.6146 11.5477 36.7754 11.7642C36.9424 11.9744 37.131 12.1631 37.3413 12.3301C37.5578 12.4971 37.7959 12.63 38.0557 12.729C38.3154 12.828 38.5999 12.8774 38.9092 12.8774C39.1257 12.8774 39.3267 12.8527 39.5122 12.8032C39.6978 12.7537 39.8709 12.6857 40.0317 12.5991C40.1925 12.5125 40.3472 12.4136 40.4956 12.3022C40.644 12.1847 40.7925 12.061 40.9409 11.9312L41.1729 12.1538C41.0306 12.3455 40.8481 12.5558 40.6255 12.7847C40.4028 13.0135 40.1338 13.23 39.8184 13.4341C39.5029 13.632 39.1349 13.799 38.7144 13.9351C38.2938 14.0649 37.8145 14.1299 37.2764 14.1299C36.7383 14.1299 36.2126 14.034 35.6992 13.8423C35.1921 13.6444 34.7406 13.3506 34.3447 12.9609C33.9489 12.5713 33.6304 12.0858 33.3892 11.5044C33.1541 10.923 33.0366 10.2427 33.0366 9.46338C33.0366 8.90055 33.1077 8.38411 33.25 7.91406C33.3923 7.44401 33.584 7.02035 33.8252 6.64307C34.0726 6.26579 34.3571 5.9349 34.6787 5.65039C35.0065 5.36589 35.3498 5.13086 35.7085 4.94531C36.0672 4.75358 36.4321 4.61133 36.8032 4.51855C37.1805 4.4196 37.5423 4.37012 37.8887 4.37012C38.3464 4.37012 38.7453 4.4196 39.0854 4.51855C39.4256 4.61751 39.707 4.75049 39.9297 4.91748C40.1585 5.08447 40.3286 5.2793 40.4399 5.50195C40.5513 5.71842 40.6069 5.94727 40.6069 6.18848C40.6069 6.47917 40.5234 6.74202 40.3564 6.97705C40.1895 7.20589 39.9668 7.4069 39.6885 7.58008L36.0239 9.7417ZM37.8887 7.8584C37.9691 7.80892 38.034 7.76253 38.0835 7.71924C38.1392 7.66976 38.1825 7.6141 38.2134 7.55225C38.2443 7.48421 38.266 7.40381 38.2783 7.31104C38.2969 7.21208 38.3062 7.09147 38.3062 6.94922C38.3062 6.7946 38.2876 6.62451 38.2505 6.43896C38.2196 6.24723 38.1639 6.06787 38.0835 5.90088C38.0031 5.73389 37.901 5.59473 37.7773 5.4834C37.6536 5.37207 37.5052 5.31641 37.332 5.31641C37.1094 5.31641 36.9176 5.38444 36.7568 5.52051C36.6022 5.65039 36.4723 5.82048 36.3672 6.03076C36.2682 6.24105 36.1878 6.48226 36.126 6.75439C36.0703 7.02035 36.027 7.28939 35.9961 7.56152C35.9652 7.83366 35.9466 8.09652 35.9404 8.3501C35.9342 8.59749 35.9312 8.80778 35.9312 8.98096L37.8887 7.8584ZM45.4312 5.16797V12.0239C45.4312 12.3517 45.493 12.5806 45.6167 12.7104C45.7404 12.8341 45.9105 12.896 46.127 12.896C46.2939 12.896 46.4424 12.8496 46.5723 12.7568C46.7021 12.6641 46.8135 12.5589 46.9062 12.4414C47.0176 12.3115 47.1134 12.16 47.1938 11.9868L47.4814 12.1167C47.3887 12.3146 47.2773 12.5311 47.1475 12.7661C47.0238 13.0011 46.8568 13.2207 46.6465 13.4248C46.4362 13.6227 46.1702 13.7897 45.8486 13.9258C45.5332 14.0618 45.1343 14.1299 44.6519 14.1299C44.3797 14.1299 44.1169 14.0897 43.8633 14.0093C43.6159 13.9289 43.3932 13.8021 43.1953 13.6289C43.0036 13.4557 42.849 13.2393 42.7314 12.9795C42.6139 12.7197 42.5552 12.4074 42.5552 12.0425V5.16797H41.5161V4.5C41.6893 4.5 41.9305 4.45671 42.2397 4.37012C42.549 4.27734 42.8644 4.12581 43.186 3.91553C43.5138 3.70524 43.8169 3.42383 44.0952 3.07129C44.3735 2.71875 44.5715 2.28271 44.689 1.76318H45.4312V4.5H46.9434C47.4382 4.5 47.6855 4.4165 47.6855 4.24951C47.6855 4.18766 47.6546 4.14746 47.5928 4.12891C47.5309 4.10417 47.4598 4.07633 47.3794 4.04541C47.3052 4.0083 47.2371 3.95882 47.1753 3.89697C47.1134 3.83512 47.0825 3.73307 47.0825 3.59082C47.0825 3.41764 47.1351 3.28158 47.2402 3.18262C47.3516 3.08366 47.4938 3.03418 47.667 3.03418C47.7783 3.03418 47.8742 3.05892 47.9546 3.1084C48.0412 3.15169 48.1123 3.21354 48.168 3.29395C48.2236 3.36816 48.2638 3.45475 48.2886 3.55371C48.3195 3.65267 48.335 3.75163 48.335 3.85059C48.335 4.2526 48.2174 4.57422 47.9824 4.81543C47.7536 5.05046 47.3825 5.16797 46.8691 5.16797H45.4312ZM6.30859 27.9624C6.30859 27.8944 6.30859 27.7583 6.30859 27.5542C6.30859 27.3439 6.30241 27.1058 6.29004 26.8398C6.27767 26.5677 6.25602 26.2801 6.2251 25.9771C6.19417 25.674 6.14469 25.3926 6.07666 25.1328C5.92822 24.9411 5.76123 24.771 5.57568 24.6226C5.39632 24.4679 5.16439 24.3906 4.87988 24.3906C4.39746 24.3906 4.04183 24.7061 3.81299 25.3369C3.59033 25.9678 3.479 26.945 3.479 28.2686C3.479 28.8499 3.50374 29.3818 3.55322 29.8643C3.60889 30.3467 3.68929 30.7611 3.79443 31.1074C3.90576 31.4538 4.04492 31.7228 4.21191 31.9146C4.38509 32.1063 4.58919 32.2021 4.82422 32.2021C5.8138 32.2021 6.30859 30.7889 6.30859 27.9624ZM6.19727 23.8804C6.07975 23.2619 5.91585 22.6867 5.70557 22.1548C5.49528 21.6167 5.2417 21.1528 4.94482 20.7632C4.65413 20.3735 4.32015 20.0674 3.94287 19.8447C3.57178 19.6221 3.16976 19.5107 2.73682 19.5107C2.48942 19.5107 2.26367 19.5417 2.05957 19.6035C1.86165 19.6654 1.68848 19.7396 1.54004 19.8262C1.3916 19.9066 1.2679 19.987 1.16895 20.0674C1.07617 20.1416 1.00814 20.1973 0.964844 20.2344L0.723633 19.9097C0.87207 19.7179 1.05143 19.5386 1.26172 19.3716C1.47819 19.2046 1.71322 19.0623 1.9668 18.9448C2.22038 18.8273 2.48633 18.7345 2.76465 18.6665C3.04915 18.5985 3.33057 18.5645 3.60889 18.5645C4.52425 18.5645 5.32829 18.7655 6.021 19.1675C6.7137 19.5633 7.29199 20.1261 7.75586 20.856C8.21973 21.5858 8.56917 22.4671 8.8042 23.5C9.03923 24.5329 9.15674 25.6802 9.15674 26.9419C9.15674 27.9624 9.0516 28.8592 8.84131 29.6323C8.63721 30.4054 8.34342 31.0549 7.95996 31.5806C7.5765 32.1001 7.10954 32.4928 6.55908 32.7588C6.01481 33.0186 5.39941 33.1484 4.71289 33.1484C4.23665 33.1484 3.75114 33.0649 3.25635 32.8979C2.76774 32.7248 2.32243 32.4465 1.92041 32.063C1.52458 31.6795 1.19987 31.1785 0.946289 30.5601C0.692708 29.9354 0.565918 29.1715 0.565918 28.2686C0.565918 27.4893 0.674154 26.7965 0.890625 26.1904C1.11328 25.5843 1.41016 25.0741 1.78125 24.6597C2.15234 24.2391 2.58219 23.9206 3.0708 23.7041C3.55941 23.4814 4.07585 23.3701 4.62012 23.3701C4.8304 23.3701 5.01904 23.3887 5.18604 23.4258C5.35303 23.4567 5.49837 23.4969 5.62207 23.5464C5.74577 23.5959 5.854 23.6515 5.94678 23.7134C6.03955 23.769 6.12305 23.8247 6.19727 23.8804ZM13.8975 25.3276C14.1325 24.9689 14.383 24.6442 14.6489 24.3535C14.7603 24.2298 14.8809 24.1092 15.0107 23.9917C15.1406 23.8742 15.2736 23.769 15.4097 23.6763C15.5519 23.5835 15.6973 23.5093 15.8457 23.4536C15.9941 23.3979 16.1426 23.3701 16.291 23.3701C16.6064 23.3701 16.8538 23.466 17.0332 23.6577C17.2126 23.8433 17.3022 24.1061 17.3022 24.4463C17.3022 24.6566 17.2837 24.8607 17.2466 25.0586C17.2157 25.2503 17.1507 25.4854 17.0518 25.7637H16.792C16.7549 25.5719 16.6683 25.4142 16.5322 25.2905C16.3962 25.1606 16.1982 25.0957 15.9385 25.0957C15.7467 25.0957 15.5581 25.1328 15.3726 25.207C15.187 25.2751 15.0046 25.3617 14.8252 25.4668C14.652 25.5719 14.485 25.6864 14.3242 25.8101C14.1696 25.9338 14.0273 26.0513 13.8975 26.1626V32.1836C13.8975 32.264 13.8851 32.3599 13.8604 32.4712C13.8356 32.5825 13.7738 32.6877 13.6748 32.7866C13.582 32.8856 13.4398 32.9691 13.248 33.0371C13.0625 33.1113 12.8058 33.1484 12.478 33.1484C12.1502 33.1484 11.8905 33.1082 11.6987 33.0278C11.5132 32.9536 11.3709 32.8639 11.272 32.7588C11.173 32.6536 11.1112 32.5454 11.0864 32.4341C11.0617 32.3228 11.0493 32.2331 11.0493 32.165V25.0029C11.0493 24.8236 11.006 24.6689 10.9194 24.5391C10.839 24.403 10.6999 24.335 10.502 24.335C10.3968 24.335 10.3071 24.3535 10.2329 24.3906C10.1587 24.4277 10.0783 24.4803 9.9917 24.5483L9.79688 24.3164C9.93913 24.1989 10.0968 24.0845 10.27 23.9731C10.4494 23.8556 10.6411 23.7536 10.8452 23.667C11.0493 23.5804 11.2689 23.5093 11.5039 23.4536C11.7389 23.3979 11.9863 23.3701 12.2461 23.3701C12.512 23.3701 12.7378 23.4072 12.9233 23.4814C13.1151 23.5495 13.2697 23.6423 13.3872 23.7598C13.5109 23.8711 13.6068 23.9979 13.6748 24.1401C13.7428 24.2824 13.7923 24.4277 13.8232 24.5762C13.8604 24.7184 13.882 24.8576 13.8882 24.9937C13.8944 25.1235 13.8975 25.2349 13.8975 25.3276ZM20.4937 28.7417C20.4937 28.9396 20.5215 29.1561 20.5771 29.3911C20.639 29.62 20.7256 29.8519 20.8369 30.0869C20.9482 30.3219 21.0843 30.5477 21.2451 30.7642C21.4121 30.9744 21.6007 31.1631 21.811 31.3301C22.0275 31.4971 22.2656 31.63 22.5254 31.729C22.7852 31.828 23.0697 31.8774 23.3789 31.8774C23.5954 31.8774 23.7964 31.8527 23.9819 31.8032C24.1675 31.7537 24.3407 31.6857 24.5015 31.5991C24.6623 31.5125 24.8169 31.4136 24.9653 31.3022C25.1138 31.1847 25.2622 31.061 25.4106 30.9312L25.6426 31.1538C25.5003 31.3455 25.3179 31.5558 25.0952 31.7847C24.8726 32.0135 24.6035 32.23 24.2881 32.4341C23.9727 32.632 23.6047 32.799 23.1841 32.9351C22.7635 33.0649 22.2842 33.1299 21.7461 33.1299C21.208 33.1299 20.6823 33.034 20.1689 32.8423C19.6618 32.6444 19.2103 32.3506 18.8145 31.9609C18.4186 31.5713 18.1001 31.0858 17.8589 30.5044C17.6239 29.923 17.5063 29.2427 17.5063 28.4634C17.5063 27.9006 17.5775 27.3841 17.7197 26.9141C17.862 26.444 18.0537 26.0203 18.2949 25.6431C18.5423 25.2658 18.8268 24.9349 19.1484 24.6504C19.4762 24.3659 19.8195 24.1309 20.1782 23.9453C20.5369 23.7536 20.9019 23.6113 21.2729 23.5186C21.6502 23.4196 22.012 23.3701 22.3584 23.3701C22.8161 23.3701 23.215 23.4196 23.5552 23.5186C23.8953 23.6175 24.1768 23.7505 24.3994 23.9175C24.6283 24.0845 24.7983 24.2793 24.9097 24.502C25.021 24.7184 25.0767 24.9473 25.0767 25.1885C25.0767 25.4792 24.9932 25.742 24.8262 25.9771C24.6592 26.2059 24.4365 26.4069 24.1582 26.5801L20.4937 28.7417ZM22.3584 26.8584C22.4388 26.8089 22.5037 26.7625 22.5532 26.7192C22.6089 26.6698 22.6522 26.6141 22.6831 26.5522C22.714 26.4842 22.7357 26.4038 22.748 26.311C22.7666 26.2121 22.7759 26.0915 22.7759 25.9492C22.7759 25.7946 22.7573 25.6245 22.7202 25.439C22.6893 25.2472 22.6336 25.0679 22.5532 24.9009C22.4728 24.7339 22.3708 24.5947 22.2471 24.4834C22.1234 24.3721 21.9749 24.3164 21.8018 24.3164C21.5791 24.3164 21.3874 24.3844 21.2266 24.5205C21.0719 24.6504 20.9421 24.8205 20.8369 25.0308C20.738 25.241 20.6576 25.4823 20.5957 25.7544C20.54 26.0203 20.4967 26.2894 20.4658 26.5615C20.4349 26.8337 20.4163 27.0965 20.4102 27.3501C20.404 27.5975 20.4009 27.8078 20.4009 27.981L22.3584 26.8584ZM31.0698 28.1943C31.0698 28.0397 31.0203 27.9222 30.9214 27.8418C30.8224 27.7614 30.6956 27.7212 30.541 27.7212C30.3245 27.7212 30.1174 27.7707 29.9194 27.8696C29.7277 27.9686 29.5576 28.1139 29.4092 28.3057C29.2607 28.4974 29.1432 28.7355 29.0566 29.02C28.9701 29.2983 28.9268 29.623 28.9268 29.9941C28.9268 30.3529 28.9515 30.6497 29.001 30.8848C29.0566 31.1198 29.1278 31.3084 29.2144 31.4507C29.3071 31.5868 29.4123 31.6826 29.5298 31.7383C29.6473 31.7939 29.771 31.8218 29.9009 31.8218C30.0617 31.8218 30.2132 31.7816 30.3555 31.7012C30.4977 31.6146 30.6214 31.5063 30.7266 31.3765C30.8317 31.2466 30.9152 31.1012 30.9771 30.9404C31.0389 30.7796 31.0698 30.6188 31.0698 30.458V28.1943ZM29.5947 24.1309C29.3844 24.1309 29.1896 24.1556 29.0103 24.2051C28.8309 24.2546 28.6763 24.3164 28.5464 24.3906C28.4165 24.4648 28.3145 24.5483 28.2402 24.6411C28.166 24.7277 28.1289 24.8112 28.1289 24.8916C28.1289 24.9844 28.1753 25.0524 28.2681 25.0957C28.367 25.1328 28.4753 25.1792 28.5928 25.2349C28.7103 25.2843 28.8154 25.3586 28.9082 25.4575C29.0072 25.5503 29.0566 25.6956 29.0566 25.8936C29.0566 26.0234 29.0288 26.144 28.9731 26.2554C28.9237 26.3605 28.8525 26.4564 28.7598 26.543C28.6732 26.6234 28.568 26.6883 28.4443 26.7378C28.3268 26.7811 28.2031 26.8027 28.0732 26.8027C27.7269 26.8027 27.4455 26.6852 27.229 26.4502C27.0187 26.2152 26.9136 25.9028 26.9136 25.5132C26.9136 25.1359 27.0125 24.8143 27.2104 24.5483C27.4084 24.2762 27.665 24.0535 27.9805 23.8804C28.3021 23.7072 28.6639 23.5804 29.0659 23.5C29.4679 23.4134 29.87 23.3701 30.272 23.3701C30.7544 23.3701 31.2152 23.4227 31.6543 23.5278C32.0934 23.633 32.48 23.8 32.814 24.0288C33.1541 24.2576 33.4232 24.5483 33.6211 24.9009C33.8252 25.2534 33.9272 25.6802 33.9272 26.1812V31.4229C33.9272 31.4785 33.9303 31.5404 33.9365 31.6084C33.9427 31.6764 33.9582 31.7383 33.9829 31.7939C34.0076 31.8496 34.0448 31.896 34.0942 31.9331C34.1437 31.9702 34.2148 31.9888 34.3076 31.9888C34.4189 31.9888 34.521 31.9486 34.6138 31.8682C34.7127 31.7816 34.7993 31.695 34.8735 31.6084L35.1055 31.8032C35.0127 31.9331 34.9014 32.0754 34.7715 32.23C34.6416 32.3846 34.4839 32.5299 34.2983 32.666C34.1128 32.8021 33.8963 32.9165 33.6489 33.0093C33.4015 33.1021 33.1201 33.1484 32.8047 33.1484C32.415 33.1484 32.0687 33.034 31.7656 32.8052C31.4626 32.5701 31.2646 32.2114 31.1719 31.729C30.974 31.995 30.7668 32.2176 30.5503 32.397C30.34 32.5763 30.1235 32.7217 29.9009 32.833C29.6782 32.9443 29.4525 33.0247 29.2236 33.0742C29.001 33.1237 28.7752 33.1484 28.5464 33.1484C28.2495 33.1484 27.9619 33.1021 27.6836 33.0093C27.4053 32.9165 27.1548 32.7712 26.9321 32.5732C26.7157 32.3691 26.5394 32.1063 26.4033 31.7847C26.2734 31.4631 26.2085 31.0703 26.2085 30.6064C26.2085 30.0436 26.3198 29.5828 26.5425 29.2241C26.7651 28.8654 27.0558 28.5654 27.4146 28.3242C27.7795 28.0768 28.1908 27.8665 28.6484 27.6934C29.1123 27.5202 29.5854 27.3377 30.0679 27.146C30.4266 27.0037 30.6864 26.7935 30.8472 26.5151C31.0142 26.2306 31.0977 25.9399 31.0977 25.6431C31.0977 25.1854 30.9616 24.8205 30.6895 24.5483C30.4235 24.27 30.0586 24.1309 29.5947 24.1309ZM44.2808 32.1836C44.2808 32.264 44.2684 32.3599 44.2437 32.4712C44.2189 32.5825 44.1571 32.6877 44.0581 32.7866C43.9653 32.8856 43.8231 32.9691 43.6313 33.0371C43.4396 33.1113 43.1799 33.1484 42.8521 33.1484C42.5243 33.1484 42.2645 33.1082 42.0728 33.0278C41.8872 32.9536 41.745 32.8639 41.646 32.7588C41.5532 32.6536 41.4945 32.5454 41.4697 32.4341C41.445 32.3228 41.4326 32.2331 41.4326 32.165V25.606C41.4326 25.5194 41.4202 25.4328 41.3955 25.3462C41.3708 25.2534 41.3337 25.1699 41.2842 25.0957C41.2347 25.0215 41.1729 24.9627 41.0986 24.9194C41.0244 24.87 40.9378 24.8452 40.8389 24.8452C40.6719 24.8452 40.508 24.8947 40.3472 24.9937C40.1864 25.0864 40.0348 25.1947 39.8926 25.3184C39.7565 25.4421 39.6359 25.5658 39.5308 25.6895C39.4318 25.8132 39.3607 25.9059 39.3174 25.9678V32.1836C39.3174 32.264 39.305 32.3599 39.2803 32.4712C39.2555 32.5825 39.1937 32.6877 39.0947 32.7866C39.002 32.8856 38.8597 32.9691 38.668 33.0371C38.4824 33.1113 38.2257 33.1484 37.8979 33.1484C37.5701 33.1484 37.3104 33.1082 37.1187 33.0278C36.9331 32.9536 36.7909 32.8639 36.6919 32.7588C36.5929 32.6536 36.5311 32.5454 36.5063 32.4341C36.4816 32.3228 36.4692 32.2331 36.4692 32.165V25.0029C36.4692 24.8236 36.4259 24.6689 36.3394 24.5391C36.259 24.403 36.1198 24.335 35.9219 24.335C35.8167 24.335 35.7271 24.3535 35.6528 24.3906C35.5786 24.4277 35.4982 24.4803 35.4116 24.5483L35.2168 24.3164C35.359 24.1989 35.5168 24.0845 35.6899 23.9731C35.8693 23.8556 36.061 23.7536 36.2651 23.667C36.4692 23.5804 36.6888 23.5093 36.9238 23.4536C37.1589 23.3979 37.4062 23.3701 37.666 23.3701C38.068 23.3701 38.3804 23.4382 38.603 23.5742C38.8257 23.7041 38.9896 23.8618 39.0947 24.0474C39.1999 24.2329 39.2617 24.4277 39.2803 24.6318C39.305 24.8298 39.3174 24.9967 39.3174 25.1328C39.6081 24.805 39.9204 24.5112 40.2544 24.2515C40.3905 24.1401 40.5389 24.0319 40.6997 23.9268C40.8667 23.8216 41.0368 23.7288 41.21 23.6484C41.3831 23.5618 41.5625 23.4938 41.748 23.4443C41.9336 23.3949 42.1191 23.3701 42.3047 23.3701C42.6634 23.3701 42.9696 23.4351 43.2231 23.5649C43.4767 23.6948 43.6808 23.8525 43.8354 24.0381C43.9901 24.2174 44.1014 24.4092 44.1694 24.6133C44.2437 24.8112 44.2808 24.9844 44.2808 25.1328C44.5776 24.805 44.89 24.5112 45.2178 24.2515C45.3538 24.1401 45.5023 24.0319 45.6631 23.9268C45.8239 23.8216 45.9909 23.7288 46.1641 23.6484C46.3434 23.5618 46.5228 23.4938 46.7021 23.4443C46.8877 23.3949 47.0732 23.3701 47.2588 23.3701C47.6175 23.3701 47.9237 23.4382 48.1772 23.5742C48.4308 23.7041 48.6349 23.8773 48.7896 24.0938C48.9442 24.3102 49.0555 24.5545 49.1235 24.8267C49.1978 25.0988 49.2349 25.3709 49.2349 25.6431V31.3857C49.2349 31.4414 49.238 31.5033 49.2441 31.5713C49.2503 31.6331 49.2658 31.695 49.2905 31.7568C49.3153 31.8125 49.3524 31.8589 49.4019 31.896C49.4575 31.9331 49.5286 31.9517 49.6152 31.9517C49.7327 31.9517 49.8379 31.9115 49.9307 31.8311C50.0234 31.7445 50.11 31.6579 50.1904 31.5713L50.4131 31.7661C50.3265 31.896 50.2121 32.0413 50.0698 32.2021C49.9276 32.3568 49.7575 32.5052 49.5596 32.6475C49.3678 32.7897 49.1421 32.9072 48.8823 33C48.6287 33.099 48.3411 33.1484 48.0195 33.1484C47.7474 33.1484 47.5093 33.1113 47.3052 33.0371C47.1073 32.9691 46.9372 32.8763 46.7949 32.7588C46.6589 32.6351 46.5568 32.4928 46.4888 32.332C46.4207 32.165 46.3867 31.9888 46.3867 31.8032V25.606C46.3867 25.5194 46.3743 25.4328 46.3496 25.3462C46.3249 25.2534 46.2878 25.1699 46.2383 25.0957C46.195 25.0215 46.1362 24.9627 46.062 24.9194C45.9878 24.87 45.9012 24.8452 45.8022 24.8452C45.6353 24.8452 45.4683 24.8947 45.3013 24.9937C45.1405 25.0864 44.9889 25.1947 44.8467 25.3184C44.7106 25.4421 44.5931 25.5658 44.4941 25.6895C44.3952 25.8132 44.3241 25.9059 44.2808 25.9678V32.1836ZM54.6621 24.1123C54.5199 24.1123 54.3838 24.1309 54.2539 24.168C54.1302 24.2051 54.0189 24.2669 53.9199 24.3535C53.821 24.4339 53.7437 24.5391 53.688 24.6689C53.6323 24.7926 53.6045 24.9411 53.6045 25.1143C53.6045 25.3555 53.6911 25.5967 53.8643 25.8379C54.0436 26.0729 54.2632 26.3203 54.5229 26.5801C54.7889 26.8337 55.0734 27.0996 55.3765 27.3779C55.6857 27.6501 55.9702 27.9408 56.23 28.25C56.4959 28.5531 56.7155 28.8778 56.8887 29.2241C57.068 29.5705 57.1577 29.9416 57.1577 30.3374C57.1577 30.7827 57.0804 31.1785 56.9258 31.5249C56.7773 31.8713 56.5609 32.165 56.2764 32.4062C55.998 32.6475 55.6579 32.833 55.2559 32.9629C54.86 33.0866 54.4178 33.1484 53.9292 33.1484C53.5024 33.1484 53.1159 33.0897 52.7695 32.9722C52.4232 32.8485 52.1139 32.7 51.8418 32.5269C51.5758 32.3475 51.347 32.1589 51.1553 31.9609C50.9635 31.763 50.8151 31.5837 50.71 31.4229L51.0347 31.1909C51.1151 31.2837 51.2171 31.3857 51.3408 31.4971C51.4645 31.6022 51.6006 31.7012 51.749 31.7939C51.9036 31.8867 52.0675 31.964 52.2407 32.0259C52.4139 32.0815 52.5902 32.1094 52.7695 32.1094C53.2148 32.1094 53.5798 32.0042 53.8643 31.7939C54.1488 31.5775 54.291 31.259 54.291 30.8384C54.291 30.6034 54.2137 30.3621 54.0591 30.1147C53.9045 29.8612 53.7096 29.6014 53.4746 29.3354C53.2396 29.0695 52.986 28.7943 52.7139 28.5098C52.4417 28.2253 52.1882 27.9315 51.9531 27.6284C51.7181 27.3254 51.5233 27.013 51.3687 26.6914C51.214 26.3698 51.1367 26.0358 51.1367 25.6895C51.1367 25.2998 51.214 24.9596 51.3687 24.6689C51.5295 24.3783 51.7397 24.137 51.9995 23.9453C52.2655 23.7536 52.5654 23.6113 52.8994 23.5186C53.2396 23.4196 53.589 23.3701 53.9478 23.3701C54.3621 23.3701 54.7394 23.4072 55.0796 23.4814C55.4198 23.5557 55.7104 23.6701 55.9517 23.8247C56.1991 23.9731 56.3877 24.1618 56.5176 24.3906C56.6536 24.6195 56.7217 24.8854 56.7217 25.1885C56.7217 25.4235 56.6444 25.6276 56.4897 25.8008C56.3351 25.974 56.1187 26.0605 55.8403 26.0605C55.5744 26.0605 55.3703 26.0049 55.228 25.8936C55.092 25.776 55.0239 25.6183 55.0239 25.4204C55.0239 25.2905 55.0549 25.1885 55.1167 25.1143C55.1847 25.04 55.259 24.9813 55.3394 24.938C55.4198 24.8885 55.4909 24.8483 55.5527 24.8174C55.6208 24.7803 55.6548 24.7339 55.6548 24.6782C55.6548 24.505 55.562 24.369 55.3765 24.27C55.1909 24.1649 54.9528 24.1123 54.6621 24.1123Z" fill="#5D9AE6"/>
</svg>
