<svg width="25" height="30" viewBox="0 0 25 30" fill="none" xmlns="http://www.w3.org/2000/svg">
<path d="M17.7686 6.50093V6.55093H17.8186H21.9449C22.3578 6.55093 22.7066 6.87511 22.7502 7.30567L24.9456 29.019C24.9696 29.2571 24.8952 29.4944 24.7412 29.672L24.7411 29.672C24.5876 29.8492 24.369 29.95 24.1401 29.95H0.859719C0.631073 29.95 0.412473 29.8492 0.258659 29.672C0.104953 29.4944 0.0304286 29.2571 0.0544157 29.019L2.24978 7.30568C2.29341 6.87511 2.64219 6.55093 3.05509 6.55093H7.18137H7.23137V6.50093V5.52383C7.23137 2.50392 9.59675 0.05 12.5001 0.05C15.4032 0.05 17.7686 2.50392 17.7686 5.52383V6.50093ZM16.0993 6.55093H16.1493V6.50093V5.52383C16.1493 3.43694 14.514 1.73574 12.5001 1.73574C10.486 1.73574 8.85073 3.43694 8.85073 5.52383V6.50093V6.55093H8.90073H16.0993ZM1.76463 28.2092L1.75907 28.2643H1.81438H23.1856H23.2409L23.2354 28.2092L21.2205 8.28164L21.2159 8.23667H21.1707H17.8186H17.7686V8.28667V10.2544C17.7686 10.7216 17.4042 11.0972 16.9589 11.0972C16.5136 11.0972 16.1493 10.7216 16.1493 10.2544V8.28667V8.23667H16.0993H8.90073H8.85073V8.28667V10.2544C8.85073 10.7216 8.48636 11.0972 8.04105 11.0972C7.59575 11.0972 7.23137 10.7216 7.23137 10.2544V8.28667V8.23667H7.18137H3.82926H3.78406L3.77952 8.28164L1.76463 28.2092Z" fill="#555555" stroke="white" stroke-width="0.1"/>
</svg>
