<svg width="79" height="46" viewBox="0 0 79 46" fill="none" xmlns="http://www.w3.org/2000/svg">
<path d="M5.53516 20.8408C5.8737 20.8408 6.20801 20.7773 6.53809 20.6504C6.86816 20.5319 7.16016 20.3288 7.41406 20.041C7.67643 19.7617 7.88802 19.3936 8.04883 18.9365C8.20964 18.4795 8.29004 17.9209 8.29004 17.2607C8.29004 16.5498 8.1123 15.86 7.75684 15.1914C7.40983 14.5228 6.96973 13.8669 6.43652 13.2236C5.91178 12.5719 5.34049 11.9287 4.72266 11.2939C4.11328 10.6507 3.54199 9.99902 3.00879 9.33887C2.48405 8.67025 2.04395 7.9847 1.68848 7.28223C1.34147 6.57129 1.16797 5.83073 1.16797 5.06055C1.16797 4.29036 1.30762 3.59635 1.58691 2.97852C1.87467 2.35221 2.25977 1.82324 2.74219 1.3916C3.23307 0.951497 3.80013 0.612956 4.44336 0.375977C5.09505 0.138997 5.78906 0.0205078 6.52539 0.0205078C7.3125 0.0205078 8.01074 0.105143 8.62012 0.274414C9.23796 0.435221 9.75846 0.659505 10.1816 0.947266C10.6133 1.22656 10.9391 1.56087 11.1592 1.9502C11.3792 2.33105 11.4893 2.7373 11.4893 3.16895C11.4893 3.37207 11.4596 3.58366 11.4004 3.80371C11.3411 4.0153 11.248 4.20996 11.1211 4.3877C10.9941 4.56543 10.8333 4.71354 10.6387 4.83203C10.444 4.95052 10.2155 5.00977 9.95312 5.00977C9.63997 5.00977 9.40723 4.91667 9.25488 4.73047C9.111 4.53581 9.00098 4.29883 8.9248 4.01953C8.8571 3.74023 8.79785 3.43555 8.74707 3.10547C8.69629 2.76693 8.61589 2.45801 8.50586 2.17871C8.39583 1.89941 8.23079 1.66667 8.01074 1.48047C7.79069 1.28581 7.46908 1.18848 7.0459 1.18848C6.81738 1.18848 6.58887 1.23926 6.36035 1.34082C6.1403 1.44238 5.93717 1.59896 5.75098 1.81055C5.57324 2.01367 5.42936 2.27604 5.31934 2.59766C5.20931 2.91927 5.1543 3.30013 5.1543 3.74023C5.1543 4.24805 5.26009 4.74316 5.47168 5.22559C5.68327 5.70801 5.96257 6.1862 6.30957 6.66016C6.65658 7.12565 7.05013 7.59538 7.49023 8.06934C7.9388 8.53483 8.3916 9.00879 8.84863 9.49121C9.31413 9.96517 9.76693 10.4561 10.207 10.9639C10.6556 11.4632 11.0534 11.9837 11.4004 12.5254C11.7474 13.0671 12.0267 13.6341 12.2383 14.2266C12.4499 14.819 12.5557 15.4411 12.5557 16.0928C12.5557 17.0492 12.3695 17.904 11.9971 18.6572C11.6331 19.402 11.1338 20.0283 10.499 20.5361C9.87272 21.0524 9.13639 21.446 8.29004 21.7168C7.44368 21.9876 6.54232 22.123 5.58594 22.123C4.72266 22.123 3.95671 22.013 3.28809 21.793C2.62793 21.5814 2.06934 21.2979 1.6123 20.9424C1.15527 20.5869 0.808268 20.1807 0.571289 19.7236C0.342773 19.2751 0.228516 18.8096 0.228516 18.3271C0.228516 18.124 0.258138 17.9082 0.317383 17.6797C0.385091 17.4427 0.47819 17.2269 0.59668 17.0322C0.723633 16.8376 0.880208 16.6768 1.06641 16.5498C1.2526 16.4144 1.46842 16.3467 1.71387 16.3467C1.96777 16.3467 2.1709 16.4102 2.32324 16.5371C2.48405 16.6641 2.611 16.8333 2.7041 17.0449C2.7972 17.2565 2.87337 17.4977 2.93262 17.7686C2.99186 18.0394 3.05534 18.3145 3.12305 18.5938C3.19076 18.873 3.27539 19.1481 3.37695 19.4189C3.47852 19.6898 3.61816 19.931 3.7959 20.1426C3.97363 20.3542 4.20215 20.5234 4.48145 20.6504C4.76074 20.7773 5.11198 20.8408 5.53516 20.8408ZM30.1768 9.84668C30.1768 9.28809 30.1387 8.82682 30.0625 8.46289C29.9863 8.09896 29.9017 7.7985 29.8086 7.56152C29.724 7.31608 29.6436 7.11719 29.5674 6.96484C29.4912 6.80404 29.4531 6.65592 29.4531 6.52051C29.4531 6.39355 29.5039 6.28776 29.6055 6.20312C29.707 6.11849 29.8255 6.04655 29.9609 5.9873C30.1048 5.92806 30.2487 5.88574 30.3926 5.86035C30.5449 5.83496 30.6676 5.82227 30.7607 5.82227C31.0062 5.82227 31.1839 5.85612 31.2939 5.92383C31.404 5.99154 31.4928 6.12272 31.5605 6.31738C31.6367 6.56283 31.6875 6.88867 31.7129 7.29492C31.7467 7.69271 31.7637 8.12012 31.7637 8.57715C31.7637 9.22884 31.7256 9.94401 31.6494 10.7227C31.5732 11.5013 31.4505 12.2842 31.2812 13.0713C31.1204 13.8584 30.9089 14.6201 30.6465 15.3564C30.3926 16.0928 30.0837 16.7487 29.7197 17.3242C29.3558 17.8913 28.9368 18.3483 28.4629 18.6953C27.9889 19.0339 27.4515 19.2031 26.8506 19.2031C26.3766 19.2031 25.9492 19.11 25.5684 18.9238C25.196 18.7292 24.8617 18.4668 24.5654 18.1367C24.2692 17.8066 24.0068 17.4215 23.7783 16.9814C23.5583 16.5329 23.3636 16.0547 23.1943 15.5469C22.9997 16.0632 22.7754 16.5456 22.5215 16.9941C22.2676 17.4342 21.984 17.8193 21.6709 18.1494C21.3662 18.4795 21.0277 18.7376 20.6553 18.9238C20.2829 19.11 19.8809 19.2031 19.4492 19.2031C18.916 19.2031 18.4421 19.0889 18.0273 18.8604C17.6211 18.6234 17.2614 18.306 16.9482 17.9082C16.6351 17.502 16.3643 17.0322 16.1357 16.499C15.9072 15.9658 15.7083 15.403 15.5391 14.8105C15.3783 14.2181 15.2428 13.6087 15.1328 12.9824C15.0228 12.3561 14.9297 11.751 14.8535 11.167C14.7773 10.583 14.7139 10.0371 14.6631 9.5293C14.6123 9.02148 14.5615 8.58138 14.5107 8.20898C14.4515 7.87044 14.3626 7.60807 14.2441 7.42188C14.1341 7.23568 13.9437 7.14258 13.6729 7.14258C13.529 7.14258 13.4062 7.16797 13.3047 7.21875C13.2031 7.26953 13.0931 7.34147 12.9746 7.43457L12.708 7.11719C12.9027 6.95638 13.1185 6.7998 13.3555 6.64746C13.6009 6.48665 13.8633 6.34701 14.1426 6.22852C14.4219 6.11003 14.7223 6.0127 15.0439 5.93652C15.3656 5.86035 15.7041 5.82227 16.0596 5.82227C16.5674 5.82227 16.9779 5.91113 17.291 6.08887C17.6042 6.25814 17.8496 6.47396 18.0273 6.73633C18.2135 6.99023 18.3447 7.2653 18.4209 7.56152C18.4971 7.85775 18.5521 8.12435 18.5859 8.36133C18.7383 9.63932 18.8864 10.765 19.0303 11.7383C19.1826 12.7116 19.3434 13.5283 19.5127 14.1885C19.682 14.8402 19.8639 15.3353 20.0586 15.6738C20.2617 16.0039 20.4987 16.1689 20.7695 16.1689C20.9473 16.1689 21.1208 16.0928 21.29 15.9404C21.4593 15.7881 21.6201 15.5765 21.7725 15.3057C21.9248 15.0348 22.0687 14.709 22.2041 14.3281C22.3395 13.9388 22.458 13.5114 22.5596 13.0459C22.4749 12.5804 22.403 12.1191 22.3438 11.6621C22.2845 11.2051 22.2295 10.7692 22.1787 10.3545C22.1364 9.93132 22.0941 9.53776 22.0518 9.17383C22.0094 8.8099 21.9629 8.48828 21.9121 8.20898C21.7852 7.41341 21.8571 6.81673 22.1279 6.41895C22.4072 6.02116 22.9616 5.82227 23.791 5.82227C24.1549 5.82227 24.4596 5.85612 24.7051 5.92383C24.959 5.98307 25.1663 6.10156 25.3271 6.2793C25.4964 6.44857 25.6318 6.68555 25.7334 6.99023C25.835 7.28646 25.9154 7.66732 25.9746 8.13281C26.1354 9.40234 26.292 10.5365 26.4443 11.5352C26.5967 12.5339 26.7575 13.376 26.9268 14.0615C27.096 14.7471 27.278 15.2718 27.4727 15.6357C27.6758 15.9912 27.9128 16.1689 28.1836 16.1689C28.4714 16.1689 28.738 15.9912 28.9834 15.6357C29.2288 15.2803 29.4404 14.8105 29.6182 14.2266C29.7959 13.6426 29.9313 12.9697 30.0244 12.208C30.126 11.4463 30.1768 10.6592 30.1768 9.84668ZM37.5146 13.1729C37.5146 13.4437 37.5527 13.7399 37.6289 14.0615C37.7135 14.3747 37.832 14.6921 37.9844 15.0137C38.1367 15.3353 38.3229 15.6442 38.543 15.9404C38.7715 16.2282 39.0296 16.4863 39.3174 16.7148C39.6136 16.9434 39.9395 17.1253 40.2949 17.2607C40.6504 17.3962 41.0397 17.4639 41.4629 17.4639C41.7591 17.4639 42.0342 17.43 42.2881 17.3623C42.542 17.2946 42.779 17.2015 42.999 17.083C43.2191 16.9645 43.4307 16.8291 43.6338 16.6768C43.8369 16.516 44.04 16.3467 44.2432 16.1689L44.5605 16.4736C44.3659 16.736 44.1162 17.0238 43.8115 17.3369C43.5068 17.6501 43.1387 17.9463 42.707 18.2256C42.2754 18.4964 41.7718 18.7249 41.1963 18.9111C40.6208 19.0889 39.9648 19.1777 39.2285 19.1777C38.4922 19.1777 37.7728 19.0465 37.0703 18.7842C36.3763 18.5133 35.7585 18.1113 35.2168 17.5781C34.6751 17.0449 34.2393 16.3805 33.9092 15.585C33.5876 14.7894 33.4268 13.8584 33.4268 12.792C33.4268 12.0218 33.5241 11.3151 33.7188 10.6719C33.9134 10.0286 34.1758 9.44889 34.5059 8.93262C34.8444 8.41634 35.2337 7.96354 35.6738 7.57422C36.1224 7.1849 36.5921 6.86328 37.083 6.60938C37.5739 6.34701 38.0732 6.15234 38.5811 6.02539C39.0973 5.88997 39.5924 5.82227 40.0664 5.82227C40.6927 5.82227 41.2386 5.88997 41.7041 6.02539C42.1696 6.16081 42.5547 6.34277 42.8594 6.57129C43.1725 6.7998 43.4053 7.06641 43.5576 7.37109C43.71 7.66732 43.7861 7.98047 43.7861 8.31055C43.7861 8.70833 43.6719 9.06803 43.4434 9.38965C43.2148 9.7028 42.9102 9.97786 42.5293 10.2148L37.5146 13.1729ZM40.0664 10.5957C40.1764 10.528 40.2653 10.4645 40.333 10.4053C40.4092 10.3376 40.4684 10.2614 40.5107 10.1768C40.5531 10.0837 40.5827 9.97363 40.5996 9.84668C40.625 9.71126 40.6377 9.54622 40.6377 9.35156C40.6377 9.13997 40.6123 8.90723 40.5615 8.65332C40.5192 8.39095 40.443 8.14551 40.333 7.91699C40.223 7.68848 40.0833 7.49805 39.9141 7.3457C39.7448 7.19336 39.5417 7.11719 39.3047 7.11719C39 7.11719 38.7376 7.21029 38.5176 7.39648C38.306 7.57422 38.1283 7.80697 37.9844 8.09473C37.849 8.38249 37.7389 8.71257 37.6543 9.08496C37.5781 9.44889 37.5189 9.81706 37.4766 10.1895C37.4342 10.5618 37.4089 10.9215 37.4004 11.2686C37.3919 11.6071 37.3877 11.8949 37.3877 12.1318L40.0664 10.5957ZM49.2959 13.1729C49.2959 13.4437 49.334 13.7399 49.4102 14.0615C49.4948 14.3747 49.6133 14.6921 49.7656 15.0137C49.918 15.3353 50.1042 15.6442 50.3242 15.9404C50.5527 16.2282 50.8109 16.4863 51.0986 16.7148C51.3949 16.9434 51.7207 17.1253 52.0762 17.2607C52.4316 17.3962 52.821 17.4639 53.2441 17.4639C53.5404 17.4639 53.8154 17.43 54.0693 17.3623C54.3232 17.2946 54.5602 17.2015 54.7803 17.083C55.0003 16.9645 55.2119 16.8291 55.415 16.6768C55.6182 16.516 55.8213 16.3467 56.0244 16.1689L56.3418 16.4736C56.1471 16.736 55.8975 17.0238 55.5928 17.3369C55.2881 17.6501 54.9199 17.9463 54.4883 18.2256C54.0566 18.4964 53.5531 18.7249 52.9775 18.9111C52.402 19.0889 51.7461 19.1777 51.0098 19.1777C50.2734 19.1777 49.554 19.0465 48.8516 18.7842C48.1576 18.5133 47.5397 18.1113 46.998 17.5781C46.4564 17.0449 46.0205 16.3805 45.6904 15.585C45.3688 14.7894 45.208 13.8584 45.208 12.792C45.208 12.0218 45.3053 11.3151 45.5 10.6719C45.6947 10.0286 45.957 9.44889 46.2871 8.93262C46.6257 8.41634 47.015 7.96354 47.4551 7.57422C47.9036 7.1849 48.3734 6.86328 48.8643 6.60938C49.3551 6.34701 49.8545 6.15234 50.3623 6.02539C50.8786 5.88997 51.3737 5.82227 51.8477 5.82227C52.474 5.82227 53.0199 5.88997 53.4854 6.02539C53.9508 6.16081 54.3359 6.34277 54.6406 6.57129C54.9538 6.7998 55.1865 7.06641 55.3389 7.37109C55.4912 7.66732 55.5674 7.98047 55.5674 8.31055C55.5674 8.70833 55.4531 9.06803 55.2246 9.38965C54.9961 9.7028 54.6914 9.97786 54.3105 10.2148L49.2959 13.1729ZM51.8477 10.5957C51.9577 10.528 52.0465 10.4645 52.1143 10.4053C52.1904 10.3376 52.2497 10.2614 52.292 10.1768C52.3343 10.0837 52.3639 9.97363 52.3809 9.84668C52.4062 9.71126 52.4189 9.54622 52.4189 9.35156C52.4189 9.13997 52.3936 8.90723 52.3428 8.65332C52.3005 8.39095 52.2243 8.14551 52.1143 7.91699C52.0042 7.68848 51.8646 7.49805 51.6953 7.3457C51.526 7.19336 51.3229 7.11719 51.0859 7.11719C50.7812 7.11719 50.5189 7.21029 50.2988 7.39648C50.0872 7.57422 49.9095 7.80697 49.7656 8.09473C49.6302 8.38249 49.5202 8.71257 49.4355 9.08496C49.3594 9.44889 49.3001 9.81706 49.2578 10.1895C49.2155 10.5618 49.1901 10.9215 49.1816 11.2686C49.1732 11.6071 49.1689 11.8949 49.1689 12.1318L51.8477 10.5957ZM62.1689 6.91406V16.2959C62.1689 16.7445 62.2536 17.0576 62.4229 17.2354C62.5921 17.4046 62.8249 17.4893 63.1211 17.4893C63.3496 17.4893 63.5527 17.4258 63.7305 17.2988C63.9082 17.1719 64.0605 17.028 64.1875 16.8672C64.3398 16.6895 64.471 16.4821 64.5811 16.2451L64.9746 16.4229C64.8477 16.6937 64.6953 16.9899 64.5176 17.3115C64.3483 17.6331 64.1198 17.9336 63.832 18.2129C63.5443 18.4837 63.1803 18.7122 62.7402 18.8984C62.3086 19.0846 61.7627 19.1777 61.1025 19.1777C60.7301 19.1777 60.3704 19.1227 60.0234 19.0127C59.6849 18.9027 59.3802 18.7292 59.1094 18.4922C58.847 18.2552 58.6354 17.959 58.4746 17.6035C58.3138 17.248 58.2334 16.8206 58.2334 16.3213V6.91406H56.8115V6C57.0485 6 57.3786 5.94076 57.8018 5.82227C58.2249 5.69531 58.6566 5.48796 59.0967 5.2002C59.5452 4.91243 59.96 4.52734 60.3408 4.04492C60.7217 3.5625 60.9925 2.96582 61.1533 2.25488H62.1689V6H64.2383C64.9154 6 65.2539 5.88574 65.2539 5.65723C65.2539 5.57259 65.2116 5.51758 65.127 5.49219C65.0423 5.45833 64.945 5.42025 64.835 5.37793C64.7334 5.32715 64.6403 5.25944 64.5557 5.1748C64.471 5.09017 64.4287 4.95052 64.4287 4.75586C64.4287 4.51888 64.5007 4.33268 64.6445 4.19727C64.7969 4.06185 64.9915 3.99414 65.2285 3.99414C65.3809 3.99414 65.512 4.02799 65.6221 4.0957C65.7406 4.15495 65.8379 4.23958 65.9141 4.34961C65.9902 4.45117 66.0452 4.56966 66.0791 4.70508C66.1214 4.84049 66.1426 4.97591 66.1426 5.11133C66.1426 5.66146 65.9818 6.10156 65.6602 6.43164C65.347 6.75326 64.8392 6.91406 64.1367 6.91406H62.1689ZM8.63281 38.1064C8.63281 38.0133 8.63281 37.8271 8.63281 37.5479C8.63281 37.2601 8.62435 36.9342 8.60742 36.5703C8.59049 36.1979 8.56087 35.8044 8.51855 35.3896C8.47624 34.9749 8.40853 34.5898 8.31543 34.2344C8.1123 33.972 7.88379 33.7393 7.62988 33.5361C7.38444 33.3245 7.06706 33.2188 6.67773 33.2188C6.01758 33.2188 5.53092 33.6504 5.21777 34.5137C4.91309 35.377 4.76074 36.7142 4.76074 38.5254C4.76074 39.321 4.7946 40.0488 4.8623 40.709C4.93848 41.3691 5.0485 41.9362 5.19238 42.4102C5.34473 42.8841 5.53516 43.2523 5.76367 43.5146C6.00065 43.777 6.27995 43.9082 6.60156 43.9082C7.95573 43.9082 8.63281 41.9743 8.63281 38.1064ZM8.48047 32.5205C8.31966 31.6742 8.09538 30.887 7.80762 30.1592C7.51986 29.4229 7.17285 28.7881 6.7666 28.2549C6.36882 27.7217 5.91178 27.3027 5.39551 26.998C4.8877 26.6934 4.33757 26.541 3.74512 26.541C3.40658 26.541 3.09766 26.5833 2.81836 26.668C2.54753 26.7526 2.31055 26.8542 2.10742 26.9727C1.9043 27.0827 1.73503 27.1927 1.59961 27.3027C1.47266 27.4043 1.37956 27.4805 1.32031 27.5312L0.990234 27.0869C1.19336 26.8245 1.4388 26.5791 1.72656 26.3506C2.02279 26.1221 2.3444 25.9274 2.69141 25.7666C3.03841 25.6058 3.40234 25.4788 3.7832 25.3857C4.17253 25.2926 4.55762 25.2461 4.93848 25.2461C6.19108 25.2461 7.29134 25.5212 8.23926 26.0713C9.18717 26.613 9.97852 27.3831 10.6133 28.3818C11.248 29.3805 11.7262 30.5866 12.0479 32C12.3695 33.4134 12.5303 34.9834 12.5303 36.71C12.5303 38.1064 12.3864 39.3337 12.0986 40.3916C11.8193 41.4495 11.4173 42.3382 10.8926 43.0576C10.3678 43.7686 9.72884 44.306 8.97559 44.6699C8.23079 45.0254 7.38867 45.2031 6.44922 45.2031C5.79753 45.2031 5.13314 45.0889 4.45605 44.8604C3.78743 44.6234 3.17806 44.2425 2.62793 43.7178C2.08626 43.193 1.64193 42.5075 1.29492 41.6611C0.947917 40.8063 0.774414 39.7611 0.774414 38.5254C0.774414 37.459 0.922526 36.5111 1.21875 35.6816C1.52344 34.8522 1.92969 34.154 2.4375 33.5869C2.94531 33.0114 3.53353 32.5755 4.20215 32.2793C4.87077 31.9746 5.57747 31.8223 6.32227 31.8223C6.61003 31.8223 6.86816 31.8477 7.09668 31.8984C7.3252 31.9408 7.52409 31.9958 7.69336 32.0635C7.86263 32.1312 8.01074 32.2074 8.1377 32.292C8.26465 32.3682 8.37891 32.4443 8.48047 32.5205ZM19.0176 34.501C19.3392 34.0101 19.682 33.5658 20.0459 33.168C20.1982 32.9987 20.3633 32.8337 20.541 32.6729C20.7188 32.512 20.9007 32.3682 21.0869 32.2412C21.2816 32.1143 21.4805 32.0127 21.6836 31.9365C21.8867 31.8604 22.0898 31.8223 22.293 31.8223C22.7246 31.8223 23.0632 31.9535 23.3086 32.2158C23.554 32.4697 23.6768 32.8294 23.6768 33.2949C23.6768 33.5827 23.6514 33.862 23.6006 34.1328C23.5583 34.3952 23.4694 34.7168 23.334 35.0977H22.9785C22.9277 34.8353 22.8092 34.6195 22.623 34.4502C22.4368 34.2725 22.166 34.1836 21.8105 34.1836C21.5482 34.1836 21.29 34.2344 21.0361 34.3359C20.7822 34.429 20.5326 34.5475 20.2871 34.6914C20.0501 34.8353 19.8216 34.9919 19.6016 35.1611C19.39 35.3304 19.1953 35.4912 19.0176 35.6436V43.8828C19.0176 43.9928 19.0007 44.124 18.9668 44.2764C18.9329 44.4287 18.8483 44.5726 18.7129 44.708C18.5859 44.8434 18.3913 44.9577 18.1289 45.0508C17.875 45.1523 17.5238 45.2031 17.0752 45.2031C16.6266 45.2031 16.2712 45.1481 16.0088 45.0381C15.7549 44.9365 15.5602 44.8138 15.4248 44.6699C15.2894 44.526 15.2048 44.3779 15.1709 44.2256C15.137 44.0732 15.1201 43.9505 15.1201 43.8574V34.0566C15.1201 33.8112 15.0609 33.5996 14.9424 33.4219C14.8324 33.2357 14.6419 33.1426 14.3711 33.1426C14.2272 33.1426 14.1045 33.168 14.0029 33.2188C13.9014 33.2695 13.7913 33.3415 13.6729 33.4346L13.4062 33.1172C13.6009 32.9564 13.8167 32.7998 14.0537 32.6475C14.2992 32.4867 14.5615 32.347 14.8408 32.2285C15.1201 32.11 15.4206 32.0127 15.7422 31.9365C16.0638 31.8604 16.4023 31.8223 16.7578 31.8223C17.1217 31.8223 17.4307 31.873 17.6846 31.9746C17.9469 32.0677 18.1585 32.1947 18.3193 32.3555C18.4886 32.5078 18.6198 32.6813 18.7129 32.876C18.806 33.0706 18.8737 33.2695 18.916 33.4727C18.9668 33.6673 18.9964 33.8577 19.0049 34.0439C19.0133 34.2217 19.0176 34.374 19.0176 34.501ZM28.0439 39.1729C28.0439 39.4437 28.082 39.7399 28.1582 40.0615C28.2428 40.3747 28.3613 40.6921 28.5137 41.0137C28.666 41.3353 28.8522 41.6442 29.0723 41.9404C29.3008 42.2282 29.5589 42.4863 29.8467 42.7148C30.1429 42.9434 30.4688 43.1253 30.8242 43.2607C31.1797 43.3962 31.569 43.4639 31.9922 43.4639C32.2884 43.4639 32.5635 43.43 32.8174 43.3623C33.0713 43.2946 33.3083 43.2015 33.5283 43.083C33.7484 42.9645 33.96 42.8291 34.1631 42.6768C34.3662 42.516 34.5693 42.3467 34.7725 42.1689L35.0898 42.4736C34.8952 42.736 34.6455 43.0238 34.3408 43.3369C34.0361 43.6501 33.668 43.9463 33.2363 44.2256C32.8047 44.4964 32.3011 44.7249 31.7256 44.9111C31.1501 45.0889 30.4941 45.1777 29.7578 45.1777C29.0215 45.1777 28.3021 45.0465 27.5996 44.7842C26.9056 44.5133 26.2878 44.1113 25.7461 43.5781C25.2044 43.0449 24.7686 42.3805 24.4385 41.585C24.1169 40.7894 23.9561 39.8584 23.9561 38.792C23.9561 38.0218 24.0534 37.3151 24.248 36.6719C24.4427 36.0286 24.7051 35.4489 25.0352 34.9326C25.3737 34.4163 25.763 33.9635 26.2031 33.5742C26.6517 33.1849 27.1214 32.8633 27.6123 32.6094C28.1032 32.347 28.6025 32.1523 29.1104 32.0254C29.6266 31.89 30.1217 31.8223 30.5957 31.8223C31.222 31.8223 31.7679 31.89 32.2334 32.0254C32.6989 32.1608 33.084 32.3428 33.3887 32.5713C33.7018 32.7998 33.9346 33.0664 34.0869 33.3711C34.2393 33.6673 34.3154 33.9805 34.3154 34.3105C34.3154 34.7083 34.2012 35.068 33.9727 35.3896C33.7441 35.7028 33.4395 35.9779 33.0586 36.2148L28.0439 39.1729ZM30.5957 36.5957C30.7057 36.528 30.7946 36.4645 30.8623 36.4053C30.9385 36.3376 30.9977 36.2614 31.04 36.1768C31.0824 36.0837 31.112 35.9736 31.1289 35.8467C31.1543 35.7113 31.167 35.5462 31.167 35.3516C31.167 35.14 31.1416 34.9072 31.0908 34.6533C31.0485 34.391 30.9723 34.1455 30.8623 33.917C30.7523 33.6885 30.6126 33.498 30.4434 33.3457C30.2741 33.1934 30.071 33.1172 29.834 33.1172C29.5293 33.1172 29.2669 33.2103 29.0469 33.3965C28.8353 33.5742 28.6576 33.807 28.5137 34.0947C28.3783 34.3825 28.2682 34.7126 28.1836 35.085C28.1074 35.4489 28.0482 35.8171 28.0059 36.1895C27.9635 36.5618 27.9382 36.9215 27.9297 37.2686C27.9212 37.6071 27.917 37.8949 27.917 38.1318L30.5957 36.5957ZM42.5166 38.4238C42.5166 38.2122 42.4489 38.0514 42.3135 37.9414C42.1781 37.8314 42.0046 37.7764 41.793 37.7764C41.4967 37.7764 41.2132 37.8441 40.9424 37.9795C40.68 38.1149 40.4473 38.3138 40.2441 38.5762C40.041 38.8385 39.8802 39.1644 39.7617 39.5537C39.6432 39.9346 39.584 40.3789 39.584 40.8867C39.584 41.3776 39.6178 41.7839 39.6855 42.1055C39.7617 42.4271 39.859 42.6852 39.9775 42.8799C40.1045 43.0661 40.2484 43.1973 40.4092 43.2734C40.57 43.3496 40.7393 43.3877 40.917 43.3877C41.137 43.3877 41.3444 43.3327 41.5391 43.2227C41.7337 43.1042 41.903 42.9561 42.0469 42.7783C42.1908 42.6006 42.305 42.4017 42.3896 42.1816C42.4743 41.9616 42.5166 41.7415 42.5166 41.5215V38.4238ZM40.498 32.8633C40.2103 32.8633 39.9437 32.8971 39.6982 32.9648C39.4528 33.0326 39.2412 33.1172 39.0635 33.2188C38.8857 33.3203 38.7461 33.4346 38.6445 33.5615C38.543 33.68 38.4922 33.7943 38.4922 33.9043C38.4922 34.0312 38.5557 34.1243 38.6826 34.1836C38.818 34.2344 38.9661 34.2979 39.127 34.374C39.2878 34.4417 39.4316 34.5433 39.5586 34.6787C39.694 34.8057 39.7617 35.0046 39.7617 35.2754C39.7617 35.4531 39.7236 35.6182 39.6475 35.7705C39.5798 35.9144 39.4824 36.0456 39.3555 36.1641C39.237 36.2741 39.0931 36.363 38.9238 36.4307C38.763 36.4899 38.5938 36.5195 38.416 36.5195C37.9421 36.5195 37.557 36.3587 37.2607 36.0371C36.973 35.7155 36.8291 35.2881 36.8291 34.7549C36.8291 34.2386 36.9645 33.7985 37.2354 33.4346C37.5062 33.0622 37.8574 32.7575 38.2891 32.5205C38.7292 32.2835 39.2243 32.11 39.7744 32C40.3245 31.8815 40.8747 31.8223 41.4248 31.8223C42.085 31.8223 42.7155 31.8942 43.3164 32.0381C43.9173 32.182 44.4463 32.4105 44.9033 32.7236C45.3688 33.0368 45.737 33.4346 46.0078 33.917C46.2871 34.3994 46.4268 34.9834 46.4268 35.6689V42.8418C46.4268 42.918 46.431 43.0026 46.4395 43.0957C46.4479 43.1888 46.4691 43.2734 46.5029 43.3496C46.5368 43.4258 46.5876 43.4893 46.6553 43.54C46.723 43.5908 46.8203 43.6162 46.9473 43.6162C47.0996 43.6162 47.2393 43.5612 47.3662 43.4512C47.5016 43.3327 47.6201 43.2142 47.7217 43.0957L48.0391 43.3623C47.9121 43.54 47.7598 43.7347 47.582 43.9463C47.4043 44.1579 47.1885 44.3568 46.9346 44.543C46.6807 44.7292 46.3844 44.8857 46.0459 45.0127C45.7074 45.1396 45.3223 45.2031 44.8906 45.2031C44.3574 45.2031 43.8835 45.0465 43.4688 44.7334C43.054 44.4118 42.7832 43.9209 42.6562 43.2607C42.3854 43.6247 42.1019 43.9294 41.8057 44.1748C41.5179 44.4202 41.2217 44.6191 40.917 44.7715C40.6123 44.9238 40.3034 45.0339 39.9902 45.1016C39.6855 45.1693 39.3766 45.2031 39.0635 45.2031C38.6572 45.2031 38.2637 45.1396 37.8828 45.0127C37.502 44.8857 37.1592 44.6868 36.8545 44.416C36.5583 44.1367 36.3171 43.777 36.1309 43.3369C35.9531 42.8968 35.8643 42.3594 35.8643 41.7246C35.8643 40.9544 36.0166 40.3239 36.3213 39.833C36.626 39.3421 37.0238 38.9316 37.5146 38.6016C38.014 38.263 38.5768 37.9753 39.2031 37.7383C39.8379 37.5013 40.4854 37.2516 41.1455 36.9893C41.6364 36.7946 41.9919 36.5068 42.2119 36.126C42.4404 35.7367 42.5547 35.3389 42.5547 34.9326C42.5547 34.3063 42.3685 33.807 41.9961 33.4346C41.6322 33.0537 41.1328 32.8633 40.498 32.8633ZM60.5947 43.8828C60.5947 43.9928 60.5778 44.124 60.5439 44.2764C60.5101 44.4287 60.4255 44.5726 60.29 44.708C60.1631 44.8434 59.9684 44.9577 59.7061 45.0508C59.4437 45.1523 59.0882 45.2031 58.6396 45.2031C58.1911 45.2031 57.8356 45.1481 57.5732 45.0381C57.3193 44.9365 57.1247 44.8138 56.9893 44.6699C56.8623 44.526 56.7819 44.3779 56.748 44.2256C56.7142 44.0732 56.6973 43.9505 56.6973 43.8574V34.8818C56.6973 34.7633 56.6803 34.6449 56.6465 34.5264C56.6126 34.3994 56.5618 34.2852 56.4941 34.1836C56.4264 34.082 56.3418 34.0016 56.2402 33.9424C56.1387 33.8747 56.0202 33.8408 55.8848 33.8408C55.6562 33.8408 55.432 33.9085 55.2119 34.0439C54.9919 34.1709 54.7845 34.319 54.5898 34.4883C54.4036 34.6576 54.2386 34.8268 54.0947 34.9961C53.9593 35.1654 53.862 35.2923 53.8027 35.377V43.8828C53.8027 43.9928 53.7858 44.124 53.752 44.2764C53.7181 44.4287 53.6335 44.5726 53.498 44.708C53.3711 44.8434 53.1764 44.9577 52.9141 45.0508C52.6602 45.1523 52.3089 45.2031 51.8604 45.2031C51.4118 45.2031 51.0563 45.1481 50.7939 45.0381C50.54 44.9365 50.3454 44.8138 50.21 44.6699C50.0745 44.526 49.9899 44.3779 49.9561 44.2256C49.9222 44.0732 49.9053 43.9505 49.9053 43.8574V34.0566C49.9053 33.8112 49.846 33.5996 49.7275 33.4219C49.6175 33.2357 49.4271 33.1426 49.1562 33.1426C49.0124 33.1426 48.8896 33.168 48.7881 33.2188C48.6865 33.2695 48.5765 33.3415 48.458 33.4346L48.1914 33.1172C48.3861 32.9564 48.6019 32.7998 48.8389 32.6475C49.0843 32.4867 49.3467 32.347 49.626 32.2285C49.9053 32.11 50.2057 32.0127 50.5273 31.9365C50.849 31.8604 51.1875 31.8223 51.543 31.8223C52.0931 31.8223 52.5205 31.9154 52.8252 32.1016C53.1299 32.2793 53.3542 32.4951 53.498 32.749C53.6419 33.0029 53.7266 33.2695 53.752 33.5488C53.7858 33.8197 53.8027 34.0482 53.8027 34.2344C54.2005 33.7858 54.6279 33.3838 55.085 33.0283C55.2712 32.876 55.4743 32.7279 55.6943 32.584C55.9229 32.4401 56.1556 32.3132 56.3926 32.2031C56.6296 32.0846 56.875 31.9915 57.1289 31.9238C57.3828 31.8561 57.6367 31.8223 57.8906 31.8223C58.3815 31.8223 58.8005 31.9111 59.1475 32.0889C59.4945 32.2666 59.7738 32.4824 59.9854 32.7363C60.1969 32.9818 60.3493 33.2441 60.4424 33.5234C60.5439 33.7943 60.5947 34.0312 60.5947 34.2344C61.001 33.7858 61.4284 33.3838 61.877 33.0283C62.0632 32.876 62.2663 32.7279 62.4863 32.584C62.7064 32.4401 62.9349 32.3132 63.1719 32.2031C63.4173 32.0846 63.6628 31.9915 63.9082 31.9238C64.1621 31.8561 64.416 31.8223 64.6699 31.8223C65.1608 31.8223 65.5798 31.9154 65.9268 32.1016C66.2738 32.2793 66.5531 32.5163 66.7646 32.8125C66.9762 33.1087 67.1286 33.443 67.2217 33.8154C67.3232 34.1878 67.374 34.5602 67.374 34.9326V42.791C67.374 42.8672 67.3783 42.9518 67.3867 43.0449C67.3952 43.1296 67.4163 43.2142 67.4502 43.2988C67.484 43.375 67.5348 43.4385 67.6025 43.4893C67.6787 43.54 67.776 43.5654 67.8945 43.5654C68.0553 43.5654 68.1992 43.5104 68.3262 43.4004C68.4531 43.2819 68.5716 43.1634 68.6816 43.0449L68.9863 43.3115C68.8678 43.4893 68.7113 43.6882 68.5166 43.9082C68.3219 44.1198 68.0892 44.3229 67.8184 44.5176C67.556 44.7122 67.2471 44.873 66.8916 45C66.5446 45.1354 66.151 45.2031 65.7109 45.2031C65.3385 45.2031 65.0127 45.1523 64.7334 45.0508C64.4626 44.9577 64.2298 44.8307 64.0352 44.6699C63.849 44.5007 63.7093 44.306 63.6162 44.0859C63.5231 43.8574 63.4766 43.6162 63.4766 43.3623V34.8818C63.4766 34.7633 63.4596 34.6449 63.4258 34.5264C63.3919 34.3994 63.3411 34.2852 63.2734 34.1836C63.2142 34.082 63.1338 34.0016 63.0322 33.9424C62.9307 33.8747 62.8122 33.8408 62.6768 33.8408C62.4482 33.8408 62.2197 33.9085 61.9912 34.0439C61.7712 34.1709 61.5638 34.319 61.3691 34.4883C61.1829 34.6576 61.0221 34.8268 60.8867 34.9961C60.7513 35.1654 60.654 35.2923 60.5947 35.377V43.8828ZM74.8008 32.8379C74.6061 32.8379 74.4199 32.8633 74.2422 32.9141C74.0729 32.9648 73.9206 33.0495 73.7852 33.168C73.6497 33.278 73.5439 33.4219 73.4678 33.5996C73.3916 33.7689 73.3535 33.972 73.3535 34.209C73.3535 34.5391 73.472 34.8691 73.709 35.1992C73.9544 35.5208 74.2549 35.8594 74.6104 36.2148C74.9743 36.5618 75.3636 36.9258 75.7783 37.3066C76.2015 37.679 76.5908 38.0768 76.9463 38.5C77.3102 38.9147 77.6107 39.359 77.8477 39.833C78.0931 40.307 78.2158 40.8148 78.2158 41.3564C78.2158 41.9658 78.11 42.5075 77.8984 42.9814C77.6953 43.4554 77.3991 43.8574 77.0098 44.1875C76.6289 44.5176 76.1634 44.7715 75.6133 44.9492C75.0716 45.1185 74.4665 45.2031 73.7979 45.2031C73.2139 45.2031 72.6849 45.1227 72.2109 44.9619C71.737 44.7926 71.3138 44.5895 70.9414 44.3525C70.5775 44.1071 70.2643 43.849 70.002 43.5781C69.7396 43.3073 69.5365 43.0618 69.3926 42.8418L69.8369 42.5244C69.9469 42.6514 70.0866 42.791 70.2559 42.9434C70.4251 43.0872 70.6113 43.2227 70.8145 43.3496C71.026 43.4766 71.2503 43.5824 71.4873 43.667C71.7243 43.7432 71.9655 43.7812 72.2109 43.7812C72.8203 43.7812 73.3197 43.6374 73.709 43.3496C74.0983 43.0534 74.293 42.6175 74.293 42.042C74.293 41.7204 74.1872 41.3903 73.9756 41.0518C73.764 40.7048 73.4974 40.3493 73.1758 39.9854C72.8542 39.6214 72.5072 39.2448 72.1348 38.8555C71.7624 38.4661 71.4154 38.0641 71.0938 37.6494C70.7721 37.2347 70.5055 36.8073 70.2939 36.3672C70.0824 35.9271 69.9766 35.4701 69.9766 34.9961C69.9766 34.4629 70.0824 33.9974 70.2939 33.5996C70.514 33.2018 70.8018 32.8717 71.1572 32.6094C71.5212 32.347 71.9316 32.1523 72.3887 32.0254C72.8542 31.89 73.3324 31.8223 73.8232 31.8223C74.3903 31.8223 74.9066 31.873 75.3721 31.9746C75.8376 32.0762 76.2354 32.2327 76.5654 32.4443C76.904 32.6475 77.1621 32.9056 77.3398 33.2188C77.526 33.5319 77.6191 33.8958 77.6191 34.3105C77.6191 34.6322 77.5133 34.9115 77.3018 35.1484C77.0902 35.3854 76.7939 35.5039 76.4131 35.5039C76.0492 35.5039 75.7699 35.4277 75.5752 35.2754C75.389 35.1146 75.2959 34.8988 75.2959 34.6279C75.2959 34.4502 75.3382 34.3105 75.4229 34.209C75.516 34.1074 75.6175 34.027 75.7275 33.9678C75.8376 33.9001 75.9349 33.8451 76.0195 33.8027C76.1126 33.752 76.1592 33.6885 76.1592 33.6123C76.1592 33.3753 76.0322 33.1891 75.7783 33.0537C75.5244 32.9098 75.1986 32.8379 74.8008 32.8379Z" fill="#5D9AE6"/>
</svg>
